<svg width="1024" height="1024" xmlns="http://www.w3.org/2000/svg" version="1.1" class="icon" t="1758254663563">
 <g>
  <path stroke-width="0" id="svg_1" fill="#fa661f" d="m-0.23077,0l1024,0l0,1024l-1024,0l0,-1024z"/>
  <g id="svg_8">
   <path id="svg_2" class="selected" fill="#FFFFFF" d="m523.99282,329.61493s-264.90482,-76.44055 -389.10266,135.50498c0,0 -45.80653,91.82981 19.68814,154.39836c0,0 13.40238,11.27101 7.69463,16.40076s-54.07916,44.03641 -41.0019,59.78692s80.37818,31.57327 169.78762,5.3465c7.40563,-3.93762 14.91964,-3.68475 29.76702,-0.46962s139.8761,58.26967 339.82813,100.53595c20.37451,7.6585 44.57828,27.52727 44.57828,27.52727l25.14302,23.58964s35.87215,55.84929 84.71318,-57.98067c14.73901,-47.82953 20.48289,-106.71333 10.76526,-149.01573c-1.80625,-5.38263 -6.71925,-11.70451 0.4335,-17.08714c7.15276,-5.38263 101.94483,-24.42052 73.29768,-83.55719s-44.07253,-114.1912 -133.55422,-72.14167l-10.72914,-14.34164c0,-0.03612 -78.21068,-92.19107 -231.30854,-128.49672z"/>
   <path id="svg_3" class="selected" fill="#FFFFFF" d="m323.6073,360.53795s65.49467,-96.30932 183.04551,-149.01573c28.71939,-10.44013 111.62633,-11.09038 121.95809,58.23354c-1.8785,8.38101 4.87688,31.13978 -145.51161,69.5768l-150.38849,38.43703l-9.1035,-17.23164z"/>
   <path id="svg_4" class="selected" fill="#FFFFFF" d="m301.42653,388.64323s56.96917,-85.50794 84.27969,-112.20434s87.49481,-47.72116 80.92006,-91.07119c-1.80625,-10.40401 -20.44677,-31.10365 -52.48966,-26.69639c-24.92627,3.468 -57.90842,22.14464 -97.4292,72.71968c-22.50589,30.52564 -51.40591,71.85267 -57.43879,138.53947c6.24963,13.40239 42.1579,18.71277 42.1579,18.71277z"/>
   <path id="svg_5" fill="#fa661f" d="m247.41962,457.28077m-28.64715,0a28.64715,28.64715 0 1 0 57.29429,0a28.64715,28.64715 0 1 0 -57.29429,0z"/>
  </g>
 </g>
</svg>